<mxfile host="app.diagrams.net" modified="2023-03-24T20:25:24.128Z" agent="Mozilla/5.0 (Windows NT 10.0; Win64; x64) AppleWebKit/537.36 (KHTML, like Gecko) Chrome/108.0.0.0 YaBrowser/23.1.5.708 Yowser/2.5 Safari/537.36" etag="GgOmrU9BacdWjHjSm1Fk" version="21.1.1" type="device">
  <diagram name="Страница 1" id="q8GA-Cu9wi0JZDHDU0Ez">
    <mxGraphModel dx="1626" dy="1960" grid="1" gridSize="10" guides="1" tooltips="1" connect="1" arrows="1" fold="1" page="1" pageScale="1" pageWidth="827" pageHeight="1169" math="0" shadow="0">
      <root>
        <mxCell id="0" />
        <mxCell id="1" parent="0" />
        <mxCell id="3cQ0suxEUUUy-fI5HbAc-6" value="Поставщики медикаментов" style="rounded=0;whiteSpace=wrap;html=1;labelBackgroundColor=#FFFFFF;" vertex="1" parent="1">
          <mxGeometry x="80" y="100" width="220" height="40" as="geometry" />
        </mxCell>
        <mxCell id="3cQ0suxEUUUy-fI5HbAc-7" value="ИНН поставщика&lt;br&gt;&lt;br&gt;Юридическое название&amp;nbsp;&lt;br&gt;&lt;br&gt;Юридический адрес&lt;br&gt;&lt;br&gt;Код ОКПО&lt;br&gt;&lt;br&gt;Номер договора о сотрудничестве&lt;br&gt;&lt;br&gt;Контакты ответственного лица&lt;br&gt;&lt;br&gt;Телефон" style="rounded=0;whiteSpace=wrap;html=1;labelBackgroundColor=#FFFFFF;" vertex="1" parent="1">
          <mxGeometry x="80" y="140" width="220" height="210" as="geometry" />
        </mxCell>
        <mxCell id="3cQ0suxEUUUy-fI5HbAc-8" value="Препараты" style="rounded=0;whiteSpace=wrap;html=1;labelBackgroundColor=#FFFFFF;" vertex="1" parent="1">
          <mxGeometry x="490" y="60" width="220" height="50" as="geometry" />
        </mxCell>
        <mxCell id="3cQ0suxEUUUy-fI5HbAc-9" value="&lt;font style=&quot;letter-spacing: 0px; text-align: left; font-size: 16px; font-family: calibri; direction: ltr; line-height: 19.2px; opacity: 1;&quot;&gt;ID&amp;nbsp;&lt;/font&gt;&lt;font style=&quot;letter-spacing: 0px; text-align: left; font-size: 16px; font-family: themed; direction: ltr; line-height: 19.2px; opacity: 1;&quot;&gt;препарата&lt;br&gt;&lt;br&gt;Наименование препаратов&lt;br&gt;&lt;br&gt;Цена&lt;br&gt;&lt;br&gt;Процент социальной скидки&lt;br&gt;&lt;br&gt;&lt;font style=&quot;letter-spacing: 0px; font-family: calibri; direction: ltr; line-height: 19.2px; opacity: 1;&quot;&gt;ИНН поставщика (&lt;/font&gt;&lt;font style=&quot;letter-spacing: 0px; direction: ltr; line-height: 19.2px; opacity: 1;&quot;&gt;FK&lt;/font&gt;&lt;font style=&quot;letter-spacing: 0px; direction: ltr; line-height: 19.2px; opacity: 1;&quot;&gt;)&lt;br&gt;&lt;/font&gt;&lt;br&gt;Номер поставки&lt;br&gt;&lt;br&gt;Количество на складе&lt;br&gt;&lt;/font&gt;" style="rounded=0;whiteSpace=wrap;html=1;labelBackgroundColor=#FFFFFF;" vertex="1" parent="1">
          <mxGeometry x="490" y="110" width="220" height="260" as="geometry" />
        </mxCell>
        <mxCell id="3cQ0suxEUUUy-fI5HbAc-10" value="&lt;font style=&quot;letter-spacing: 0px; font-size: 16px; font-family: calibri; direction: ltr; line-height: 19.2px; opacity: 1;&quot;&gt;Заказ&lt;/font&gt;&lt;font style=&quot;letter-spacing: 0px; font-size: 16px; font-family: themed; direction: ltr; line-height: 19.2px; opacity: 1;&quot;&gt;&amp;nbsp;&lt;/font&gt;&lt;font style=&quot;letter-spacing: 0px; font-size: 16px; font-family: themed; direction: ltr; line-height: 19.2px; opacity: 1;&quot;&gt;на&lt;/font&gt;&lt;font style=&quot;letter-spacing: 0px; font-size: 16px; font-family: themed; direction: ltr; line-height: 19.2px; opacity: 1;&quot;&gt;&amp;nbsp;поставку&lt;/font&gt;" style="rounded=0;whiteSpace=wrap;html=1;labelBackgroundColor=#FFFFFF;" vertex="1" parent="1">
          <mxGeometry x="470" y="-340" width="230" height="60" as="geometry" />
        </mxCell>
        <mxCell id="3cQ0suxEUUUy-fI5HbAc-11" value="&lt;font style=&quot;letter-spacing: 0px; text-align: left; font-size: 16px; font-family: calibri; direction: ltr; line-height: 19.2px; opacity: 1;&quot;&gt;ID&lt;/font&gt;&lt;font style=&quot;letter-spacing: 0px; text-align: left; direction: ltr; line-height: 19.2px; opacity: 1; font-size: 16px; font-family: themed;&quot;&gt;&amp;nbsp;заказа&lt;br&gt;&lt;br&gt;&lt;font style=&quot;letter-spacing: 0px; font-family: calibri; direction: ltr; line-height: 19.2px; opacity: 1;&quot;&gt;ID&lt;/font&gt;&lt;font style=&quot;letter-spacing: 0px; direction: ltr; line-height: 19.2px; opacity: 1;&quot;&gt;&amp;nbsp;препарата (&lt;/font&gt;&lt;font style=&quot;letter-spacing: 0px; direction: ltr; line-height: 19.2px; opacity: 1;&quot;&gt;FK&lt;/font&gt;&lt;font style=&quot;letter-spacing: 0px; direction: ltr; line-height: 19.2px; opacity: 1;&quot;&gt;)&lt;br&gt;&lt;/font&gt;&lt;br&gt;Дата заказа&lt;br&gt;&lt;br&gt;Дата отгрузки&lt;br&gt;&lt;br&gt;Статус услуги заказа&lt;br&gt;&lt;br&gt;Количество препаратов&lt;br&gt;&lt;br&gt;Статус заказа&lt;br&gt;&lt;/font&gt;" style="rounded=0;whiteSpace=wrap;html=1;labelBackgroundColor=#FFFFFF;" vertex="1" parent="1">
          <mxGeometry x="470" y="-280" width="230" height="270" as="geometry" />
        </mxCell>
        <mxCell id="3cQ0suxEUUUy-fI5HbAc-12" value="История покупок" style="rounded=0;whiteSpace=wrap;html=1;labelBackgroundColor=#FFFFFF;" vertex="1" parent="1">
          <mxGeometry x="790" y="60" width="200" height="60" as="geometry" />
        </mxCell>
        <mxCell id="3cQ0suxEUUUy-fI5HbAc-13" value="&lt;font style=&quot;letter-spacing: 0px; text-align: left; font-size: 16px; font-family: calibri; direction: ltr; line-height: 19.2px; opacity: 1;&quot;&gt;ID&lt;/font&gt;&lt;font style=&quot;letter-spacing: 0px; text-align: left; font-size: 16px; font-family: themed; direction: ltr; line-height: 19.2px; opacity: 1;&quot;&gt;&amp;nbsp;покупки&lt;br&gt;&lt;br&gt;&lt;font style=&quot;letter-spacing: 0px; font-family: calibri; direction: ltr; line-height: 19.2px; opacity: 1;&quot;&gt;ID&amp;nbsp;&lt;/font&gt;&lt;font style=&quot;letter-spacing: 0px; direction: ltr; line-height: 19.2px; opacity: 1;&quot;&gt;препарата&lt;/font&gt;&lt;font style=&quot;letter-spacing: 0px; direction: ltr; line-height: 19.2px; opacity: 1;&quot;&gt;&amp;nbsp;(&lt;/font&gt;&lt;font style=&quot;letter-spacing: 0px; direction: ltr; line-height: 19.2px; opacity: 1;&quot;&gt;FK&lt;/font&gt;&lt;font style=&quot;letter-spacing: 0px; direction: ltr; line-height: 19.2px; opacity: 1;&quot;&gt;)&lt;br&gt;&lt;/font&gt;&lt;br&gt;&lt;font style=&quot;letter-spacing: 0px; font-family: calibri; direction: ltr; line-height: 19.2px; opacity: 1;&quot;&gt;ID&amp;nbsp;&lt;/font&gt;&lt;font style=&quot;letter-spacing: 0px; direction: ltr; line-height: 19.2px; opacity: 1;&quot;&gt;клиента&lt;/font&gt;&lt;font style=&quot;letter-spacing: 0px; direction: ltr; line-height: 19.2px; opacity: 1;&quot;&gt;&amp;nbsp;(&lt;/font&gt;&lt;font style=&quot;letter-spacing: 0px; direction: ltr; line-height: 19.2px; opacity: 1;&quot;&gt;FK&lt;/font&gt;&lt;font style=&quot;letter-spacing: 0px; direction: ltr; line-height: 19.2px; opacity: 1;&quot;&gt;)&lt;br&gt;&lt;/font&gt;&lt;br&gt;Дата&lt;br&gt;&lt;/font&gt;" style="rounded=0;whiteSpace=wrap;html=1;labelBackgroundColor=#FFFFFF;" vertex="1" parent="1">
          <mxGeometry x="790" y="120" width="200" height="160" as="geometry" />
        </mxCell>
        <mxCell id="3cQ0suxEUUUy-fI5HbAc-14" value="Клиенты" style="rounded=0;whiteSpace=wrap;html=1;labelBackgroundColor=#FFFFFF;" vertex="1" parent="1">
          <mxGeometry x="1121" y="40" width="209" height="60" as="geometry" />
        </mxCell>
        <mxCell id="3cQ0suxEUUUy-fI5HbAc-15" value="&lt;font style=&quot;letter-spacing: 0px; text-align: left; font-size: 16px; font-family: calibri; direction: ltr; line-height: 19.2px; opacity: 1;&quot;&gt;ID&lt;/font&gt;&lt;font style=&quot;letter-spacing: 0px; text-align: left; font-size: 16px; font-family: themed; direction: ltr; line-height: 19.2px; opacity: 1;&quot;&gt;&amp;nbsp;клиента&lt;br&gt;&lt;br&gt;Фамилия&lt;br&gt;&lt;br&gt;Имя&lt;br&gt;&lt;br&gt;Отчество&lt;br&gt;&lt;br&gt;Телефон&lt;br&gt;&lt;br&gt;Почта&lt;br&gt;&lt;br&gt;Размер скидки&lt;br&gt;&lt;/font&gt;" style="rounded=0;whiteSpace=wrap;html=1;labelBackgroundColor=#FFFFFF;" vertex="1" parent="1">
          <mxGeometry x="1121" y="100" width="209" height="270" as="geometry" />
        </mxCell>
        <mxCell id="3cQ0suxEUUUy-fI5HbAc-16" value="Запись на прием" style="rounded=0;whiteSpace=wrap;html=1;labelBackgroundColor=#FFFFFF;" vertex="1" parent="1">
          <mxGeometry x="1470" y="20" width="250" height="60" as="geometry" />
        </mxCell>
        <mxCell id="3cQ0suxEUUUy-fI5HbAc-17" value="&lt;font style=&quot;letter-spacing: 0px; text-align: left; font-size: 16px; font-family: calibri; direction: ltr; line-height: 19.2px; opacity: 1;&quot;&gt;ID&amp;nbsp;&lt;/font&gt;&lt;font style=&quot;letter-spacing: 0px; text-align: left; font-size: 16px; font-family: calibri; direction: ltr; line-height: 19.2px; opacity: 1;&quot;&gt;записи&lt;br&gt;&lt;br&gt;&lt;font style=&quot;letter-spacing: 0px; direction: ltr; line-height: 19.2px; opacity: 1;&quot;&gt;ID&amp;nbsp;&lt;/font&gt;&lt;font style=&quot;letter-spacing: 0px; direction: ltr; line-height: 19.2px; opacity: 1;&quot;&gt;сотрудника&lt;/font&gt;&lt;font style=&quot;letter-spacing: 0px; font-family: themed; direction: ltr; line-height: 19.2px; opacity: 1;&quot;&gt;&amp;nbsp;(&lt;/font&gt;&lt;font style=&quot;letter-spacing: 0px; font-family: themed; direction: ltr; line-height: 19.2px; opacity: 1;&quot;&gt;FK&lt;/font&gt;&lt;font style=&quot;letter-spacing: 0px; font-family: themed; direction: ltr; line-height: 19.2px; opacity: 1;&quot;&gt;)&lt;br&gt;&lt;/font&gt;&lt;br&gt;&lt;font style=&quot;letter-spacing: 0px; direction: ltr; line-height: 19.2px; opacity: 1;&quot;&gt;ID&amp;nbsp;&lt;/font&gt;&lt;font style=&quot;letter-spacing: 0px; direction: ltr; line-height: 19.2px; opacity: 1;&quot;&gt;специалиста&lt;/font&gt;&lt;font style=&quot;letter-spacing: 0px; font-family: themed; direction: ltr; line-height: 19.2px; opacity: 1;&quot;&gt;&amp;nbsp;(&lt;/font&gt;&lt;font style=&quot;letter-spacing: 0px; font-family: themed; direction: ltr; line-height: 19.2px; opacity: 1;&quot;&gt;FK&lt;/font&gt;&lt;font style=&quot;letter-spacing: 0px; font-family: themed; direction: ltr; line-height: 19.2px; opacity: 1;&quot;&gt;)&lt;br&gt;&lt;/font&gt;&lt;br&gt;&lt;font style=&quot;letter-spacing: 0px; direction: ltr; line-height: 19.2px; opacity: 1;&quot;&gt;ID&amp;nbsp;&lt;/font&gt;&lt;font style=&quot;letter-spacing: 0px; direction: ltr; line-height: 19.2px; opacity: 1;&quot;&gt;клиента&lt;/font&gt;&lt;font style=&quot;letter-spacing: 0px; font-family: themed; direction: ltr; line-height: 19.2px; opacity: 1;&quot;&gt;&amp;nbsp;(&lt;/font&gt;&lt;font style=&quot;letter-spacing: 0px; font-family: themed; direction: ltr; line-height: 19.2px; opacity: 1;&quot;&gt;FK&lt;/font&gt;&lt;font style=&quot;letter-spacing: 0px; font-family: themed; direction: ltr; line-height: 19.2px; opacity: 1;&quot;&gt;)&lt;br&gt;&lt;/font&gt;&lt;br&gt;Дата записи&lt;br&gt;&lt;br&gt;Дата приёма&lt;br&gt;&lt;/font&gt;" style="rounded=0;whiteSpace=wrap;html=1;labelBackgroundColor=#FFFFFF;" vertex="1" parent="1">
          <mxGeometry x="1470" y="80" width="250" height="280" as="geometry" />
        </mxCell>
        <mxCell id="3cQ0suxEUUUy-fI5HbAc-18" value="Договор" style="rounded=0;whiteSpace=wrap;html=1;labelBackgroundColor=#FFFFFF;" vertex="1" parent="1">
          <mxGeometry x="1350" y="-340" width="200" height="60" as="geometry" />
        </mxCell>
        <mxCell id="3cQ0suxEUUUy-fI5HbAc-19" value="&lt;font style=&quot;letter-spacing: 0px; text-align: left; font-size: 16px; font-family: calibri; direction: ltr; line-height: 19.2px; opacity: 1;&quot;&gt;ID&amp;nbsp;&lt;/font&gt;&lt;font style=&quot;letter-spacing: 0px; text-align: left; font-size: 16px; font-family: calibri; direction: ltr; line-height: 19.2px; opacity: 1;&quot;&gt;договора&lt;br&gt;&lt;br&gt;&lt;font style=&quot;letter-spacing: 0px; direction: ltr; line-height: 19.2px; opacity: 1;&quot;&gt;ID&amp;nbsp;&lt;/font&gt;&lt;font style=&quot;letter-spacing: 0px; direction: ltr; line-height: 19.2px; opacity: 1;&quot;&gt;записи&lt;/font&gt;&lt;font style=&quot;letter-spacing: 0px; font-family: themed; direction: ltr; line-height: 19.2px; opacity: 1;&quot;&gt;&amp;nbsp;(&lt;/font&gt;&lt;font style=&quot;letter-spacing: 0px; font-family: themed; direction: ltr; line-height: 19.2px; opacity: 1;&quot;&gt;FK&lt;/font&gt;&lt;font style=&quot;letter-spacing: 0px; font-family: themed; direction: ltr; line-height: 19.2px; opacity: 1;&quot;&gt;)&lt;br&gt;&lt;/font&gt;&lt;br&gt;Стоимость услуги&lt;br&gt;&lt;/font&gt;" style="rounded=0;whiteSpace=wrap;html=1;labelBackgroundColor=#FFFFFF;" vertex="1" parent="1">
          <mxGeometry x="1350" y="-280" width="200" height="170" as="geometry" />
        </mxCell>
        <mxCell id="3cQ0suxEUUUy-fI5HbAc-20" value="Счета" style="rounded=0;whiteSpace=wrap;html=1;labelBackgroundColor=#FFFFFF;" vertex="1" parent="1">
          <mxGeometry x="1090" y="-330" width="170" height="60" as="geometry" />
        </mxCell>
        <mxCell id="3cQ0suxEUUUy-fI5HbAc-21" value="&lt;font style=&quot;letter-spacing: 0px; text-align: left; font-size: 16px; font-family: calibri; direction: ltr; line-height: 19.2px; opacity: 1;&quot;&gt;ID&amp;nbsp;&lt;/font&gt;&lt;font style=&quot;letter-spacing: 0px; text-align: left; font-size: 16px; font-family: calibri; direction: ltr; line-height: 19.2px; opacity: 1;&quot;&gt;счета&lt;br&gt;&lt;br&gt;&lt;font style=&quot;letter-spacing: 0px; direction: ltr; line-height: 19.2px; opacity: 1;&quot;&gt;ID&amp;nbsp;&lt;/font&gt;&lt;font style=&quot;letter-spacing: 0px; direction: ltr; line-height: 19.2px; opacity: 1;&quot;&gt;договора&lt;/font&gt;&lt;font style=&quot;letter-spacing: 0px; font-family: themed; direction: ltr; line-height: 19.2px; opacity: 1;&quot;&gt;&amp;nbsp;(&lt;/font&gt;&lt;font style=&quot;letter-spacing: 0px; font-family: themed; direction: ltr; line-height: 19.2px; opacity: 1;&quot;&gt;FK&lt;/font&gt;&lt;font style=&quot;letter-spacing: 0px; font-family: themed; direction: ltr; line-height: 19.2px; opacity: 1;&quot;&gt;)&lt;br&gt;&lt;/font&gt;&lt;br&gt;Сумма счета&lt;br&gt;&lt;br&gt;Статус оплаты&lt;br&gt;&lt;/font&gt;" style="rounded=0;whiteSpace=wrap;html=1;labelBackgroundColor=#FFFFFF;" vertex="1" parent="1">
          <mxGeometry x="1090" y="-270" width="170" height="150" as="geometry" />
        </mxCell>
        <mxCell id="3cQ0suxEUUUy-fI5HbAc-22" value="Сотрудники" style="rounded=0;whiteSpace=wrap;html=1;labelBackgroundColor=#FFFFFF;" vertex="1" parent="1">
          <mxGeometry x="1950" y="-385" width="210" height="60" as="geometry" />
        </mxCell>
        <mxCell id="3cQ0suxEUUUy-fI5HbAc-23" value="&lt;font style=&quot;letter-spacing: 0px; text-align: left; font-size: 16px; font-family: calibri; direction: ltr; line-height: 19.2px; opacity: 1;&quot;&gt;ID&lt;/font&gt;&lt;font style=&quot;letter-spacing: 0px; text-align: left; font-size: 16px; font-family: themed; direction: ltr; line-height: 19.2px; opacity: 1;&quot;&gt;&amp;nbsp;сотрудника&lt;br&gt;&lt;br&gt;Должность&lt;br&gt;&lt;br&gt;Фамилия&lt;br&gt;&lt;br&gt;Имя&lt;br&gt;&lt;br&gt;Отчество&amp;nbsp;&lt;br&gt;&lt;br&gt;Адрес&lt;br&gt;&lt;br&gt;Телефон&lt;br&gt;&lt;br&gt;Почта&lt;br&gt;&lt;/font&gt;" style="rounded=0;whiteSpace=wrap;html=1;labelBackgroundColor=#FFFFFF;" vertex="1" parent="1">
          <mxGeometry x="1950" y="-325" width="210" height="300" as="geometry" />
        </mxCell>
        <mxCell id="3cQ0suxEUUUy-fI5HbAc-24" value="Специалист" style="rounded=0;whiteSpace=wrap;html=1;labelBackgroundColor=#FFFFFF;" vertex="1" parent="1">
          <mxGeometry x="1915" y="70" width="200" height="60" as="geometry" />
        </mxCell>
        <mxCell id="3cQ0suxEUUUy-fI5HbAc-25" value="&lt;font style=&quot;letter-spacing: 0px; text-align: left; font-size: 16px; font-family: calibri; direction: ltr; line-height: 19.2px; opacity: 1;&quot;&gt;ID&lt;/font&gt;&lt;font style=&quot;letter-spacing: 0px; text-align: left; font-size: 16px; font-family: themed; direction: ltr; line-height: 19.2px; opacity: 1;&quot;&gt;&amp;nbsp;специалиста&lt;br&gt;&lt;br&gt;Фамилия&lt;br&gt;&lt;br&gt;Имя&amp;nbsp;&lt;br&gt;&lt;br&gt;Отчество&lt;br&gt;&lt;br&gt;Адрес&lt;br&gt;&lt;br&gt;Телефон&lt;br&gt;&lt;br&gt;Почта&lt;br&gt;&lt;br&gt;Должность&lt;br&gt;&lt;br&gt;График работы&lt;br&gt;&lt;/font&gt;" style="rounded=0;whiteSpace=wrap;html=1;labelBackgroundColor=#FFFFFF;" vertex="1" parent="1">
          <mxGeometry x="1915" y="130" width="200" height="345" as="geometry" />
        </mxCell>
        <mxCell id="3cQ0suxEUUUy-fI5HbAc-26" value="Кабинет" style="rounded=0;whiteSpace=wrap;html=1;labelBackgroundColor=#FFFFFF;" vertex="1" parent="1">
          <mxGeometry x="1740" y="530" width="210" height="60" as="geometry" />
        </mxCell>
        <mxCell id="3cQ0suxEUUUy-fI5HbAc-27" value="&lt;font style=&quot;letter-spacing: 0px; text-align: left; font-size: 16px; font-family: calibri; direction: ltr; line-height: 19.2px; opacity: 1;&quot;&gt;ID&amp;nbsp;&lt;/font&gt;&lt;font style=&quot;letter-spacing: 0px; text-align: left; font-size: 16px; font-family: calibri; direction: ltr; line-height: 19.2px; opacity: 1;&quot;&gt;кабинета&lt;br&gt;&lt;br&gt;&lt;font style=&quot;letter-spacing: 0px; direction: ltr; line-height: 19.2px; opacity: 1;&quot;&gt;ID&amp;nbsp;&lt;/font&gt;&lt;font style=&quot;letter-spacing: 0px; direction: ltr; line-height: 19.2px; opacity: 1;&quot;&gt;специалиста&lt;/font&gt;&lt;font style=&quot;letter-spacing: 0px; font-family: themed; direction: ltr; line-height: 19.2px; opacity: 1;&quot;&gt;&amp;nbsp;(&lt;/font&gt;&lt;font style=&quot;letter-spacing: 0px; font-family: themed; direction: ltr; line-height: 19.2px; opacity: 1;&quot;&gt;FK&lt;/font&gt;&lt;font style=&quot;letter-spacing: 0px; font-family: themed; direction: ltr; line-height: 19.2px; opacity: 1;&quot;&gt;)&lt;br&gt;&lt;/font&gt;&lt;br&gt;&lt;font style=&quot;letter-spacing: 0px; direction: ltr; line-height: 19.2px; opacity: 1;&quot;&gt;ID&amp;nbsp;&lt;/font&gt;&lt;font style=&quot;letter-spacing: 0px; direction: ltr; line-height: 19.2px; opacity: 1;&quot;&gt;предмета&lt;/font&gt;&lt;font style=&quot;letter-spacing: 0px; direction: ltr; line-height: 19.2px; opacity: 1;&quot;&gt;&amp;nbsp;&lt;/font&gt;&lt;font style=&quot;letter-spacing: 0px; font-family: themed; direction: ltr; line-height: 19.2px; opacity: 1;&quot;&gt;(&lt;/font&gt;&lt;font style=&quot;letter-spacing: 0px; font-family: themed; direction: ltr; line-height: 19.2px; opacity: 1;&quot;&gt;FK&lt;/font&gt;&lt;font style=&quot;letter-spacing: 0px; font-family: themed; direction: ltr; line-height: 19.2px; opacity: 1;&quot;&gt;)&lt;/font&gt;&lt;br&gt;&lt;/font&gt;" style="rounded=0;whiteSpace=wrap;html=1;labelBackgroundColor=#FFFFFF;" vertex="1" parent="1">
          <mxGeometry x="1740" y="590" width="210" height="150" as="geometry" />
        </mxCell>
        <mxCell id="3cQ0suxEUUUy-fI5HbAc-28" value="Предмет" style="rounded=0;whiteSpace=wrap;html=1;labelBackgroundColor=#FFFFFF;" vertex="1" parent="1">
          <mxGeometry x="2050" y="530" width="170" height="60" as="geometry" />
        </mxCell>
        <mxCell id="3cQ0suxEUUUy-fI5HbAc-29" value="&lt;font style=&quot;letter-spacing: 0px; text-align: left; font-size: 16px; font-family: calibri; direction: ltr; line-height: 19.2px; opacity: 1;&quot;&gt;ID&amp;nbsp;&lt;/font&gt;&lt;font style=&quot;letter-spacing: 0px; text-align: left; font-size: 16px; font-family: calibri; direction: ltr; line-height: 19.2px; opacity: 1;&quot;&gt;предмета&lt;br&gt;&lt;br&gt;Наименование&lt;br&gt;&lt;br&gt;Тип (оборудование, препарат)&lt;br&gt;&lt;br&gt;Категория&lt;br&gt;&lt;br&gt;Срок хранения&lt;br&gt;&lt;/font&gt;" style="rounded=0;whiteSpace=wrap;html=1;labelBackgroundColor=#FFFFFF;" vertex="1" parent="1">
          <mxGeometry x="2050" y="590" width="170" height="220" as="geometry" />
        </mxCell>
        <mxCell id="3cQ0suxEUUUy-fI5HbAc-30" value="Склад" style="rounded=0;whiteSpace=wrap;html=1;labelBackgroundColor=#FFFFFF;" vertex="1" parent="1">
          <mxGeometry x="2330" y="530" width="150" height="60" as="geometry" />
        </mxCell>
        <mxCell id="3cQ0suxEUUUy-fI5HbAc-31" value="&lt;font style=&quot;letter-spacing: 0px; text-align: left; font-size: 16px; font-family: calibri; direction: ltr; line-height: 19.2px; opacity: 1;&quot;&gt;ID&amp;nbsp;&lt;/font&gt;&lt;font style=&quot;letter-spacing: 0px; text-align: left; font-size: 16px; font-family: calibri; direction: ltr; line-height: 19.2px; opacity: 1;&quot;&gt;склада&lt;br&gt;&lt;br&gt;&lt;font style=&quot;letter-spacing: 0px; direction: ltr; line-height: 19.2px; opacity: 1;&quot;&gt;ID&lt;/font&gt;&lt;font style=&quot;letter-spacing: 0px; direction: ltr; line-height: 19.2px; opacity: 1;&quot;&gt;&amp;nbsp;предмета&lt;/font&gt;&lt;font style=&quot;letter-spacing: 0px; font-family: themed; direction: ltr; line-height: 19.2px; opacity: 1;&quot;&gt;&amp;nbsp;(&lt;/font&gt;&lt;font style=&quot;letter-spacing: 0px; font-family: themed; direction: ltr; line-height: 19.2px; opacity: 1;&quot;&gt;FK&lt;/font&gt;&lt;font style=&quot;letter-spacing: 0px; font-family: themed; direction: ltr; line-height: 19.2px; opacity: 1;&quot;&gt;)&lt;br&gt;&lt;/font&gt;&lt;br&gt;Количество&lt;br&gt;&lt;/font&gt;" style="rounded=0;whiteSpace=wrap;html=1;labelBackgroundColor=#FFFFFF;" vertex="1" parent="1">
          <mxGeometry x="2330" y="590" width="150" height="160" as="geometry" />
        </mxCell>
        <mxCell id="3cQ0suxEUUUy-fI5HbAc-32" value="" style="edgeStyle=orthogonalEdgeStyle;fontSize=12;html=1;endArrow=ERzeroToMany;startArrow=ERmandOne;rounded=0;exitX=-0.009;exitY=0.654;exitDx=0;exitDy=0;exitPerimeter=0;entryX=1;entryY=0.076;entryDx=0;entryDy=0;entryPerimeter=0;" edge="1" parent="1" source="3cQ0suxEUUUy-fI5HbAc-9" target="3cQ0suxEUUUy-fI5HbAc-7">
          <mxGeometry width="100" height="100" relative="1" as="geometry">
            <mxPoint x="450" y="40" as="sourcePoint" />
            <mxPoint x="310" y="170" as="targetPoint" />
          </mxGeometry>
        </mxCell>
        <mxCell id="3cQ0suxEUUUy-fI5HbAc-33" value="" style="edgeStyle=orthogonalEdgeStyle;fontSize=12;html=1;endArrow=ERzeroToMany;startArrow=ERmandOne;rounded=0;entryX=1.009;entryY=0.069;entryDx=0;entryDy=0;entryPerimeter=0;exitX=0.005;exitY=0.338;exitDx=0;exitDy=0;exitPerimeter=0;" edge="1" parent="1" source="3cQ0suxEUUUy-fI5HbAc-13" target="3cQ0suxEUUUy-fI5HbAc-9">
          <mxGeometry width="100" height="100" relative="1" as="geometry">
            <mxPoint x="1080" y="-130" as="sourcePoint" />
            <mxPoint x="720" y="130" as="targetPoint" />
          </mxGeometry>
        </mxCell>
        <mxCell id="3cQ0suxEUUUy-fI5HbAc-34" value="" style="edgeStyle=orthogonalEdgeStyle;fontSize=12;html=1;endArrow=ERzeroToMany;startArrow=ERmandOne;rounded=0;exitX=1.005;exitY=0.681;exitDx=0;exitDy=0;exitPerimeter=0;" edge="1" parent="1" source="3cQ0suxEUUUy-fI5HbAc-13">
          <mxGeometry width="100" height="100" relative="1" as="geometry">
            <mxPoint x="1120" y="-160" as="sourcePoint" />
            <mxPoint x="1120" y="120" as="targetPoint" />
          </mxGeometry>
        </mxCell>
        <mxCell id="3cQ0suxEUUUy-fI5HbAc-35" value="" style="edgeStyle=orthogonalEdgeStyle;fontSize=12;html=1;endArrow=ERzeroToMany;startArrow=ERmandOne;rounded=0;entryX=1.005;entryY=0.085;entryDx=0;entryDy=0;entryPerimeter=0;exitX=0.004;exitY=0.586;exitDx=0;exitDy=0;exitPerimeter=0;" edge="1" parent="1" source="3cQ0suxEUUUy-fI5HbAc-17" target="3cQ0suxEUUUy-fI5HbAc-15">
          <mxGeometry width="100" height="100" relative="1" as="geometry">
            <mxPoint x="1490" y="70" as="sourcePoint" />
            <mxPoint x="1360" y="-80" as="targetPoint" />
          </mxGeometry>
        </mxCell>
        <mxCell id="3cQ0suxEUUUy-fI5HbAc-36" value="" style="edgeStyle=orthogonalEdgeStyle;fontSize=12;html=1;endArrow=ERzeroToMany;startArrow=ERmandOne;rounded=0;exitX=1;exitY=0.443;exitDx=0;exitDy=0;exitPerimeter=0;entryX=-0.01;entryY=0.055;entryDx=0;entryDy=0;entryPerimeter=0;" edge="1" parent="1" source="3cQ0suxEUUUy-fI5HbAc-17" target="3cQ0suxEUUUy-fI5HbAc-25">
          <mxGeometry width="100" height="100" relative="1" as="geometry">
            <mxPoint x="1860" as="sourcePoint" />
            <mxPoint x="1730" y="-150" as="targetPoint" />
          </mxGeometry>
        </mxCell>
        <mxCell id="3cQ0suxEUUUy-fI5HbAc-37" value="" style="edgeStyle=orthogonalEdgeStyle;fontSize=12;html=1;endArrow=ERzeroToMany;startArrow=ERmandOne;rounded=0;exitX=1.016;exitY=0.321;exitDx=0;exitDy=0;exitPerimeter=0;entryX=0;entryY=0.06;entryDx=0;entryDy=0;entryPerimeter=0;" edge="1" parent="1" source="3cQ0suxEUUUy-fI5HbAc-17" target="3cQ0suxEUUUy-fI5HbAc-23">
          <mxGeometry width="100" height="100" relative="1" as="geometry">
            <mxPoint x="1880" y="20" as="sourcePoint" />
            <mxPoint x="1750" y="-130" as="targetPoint" />
            <Array as="points">
              <mxPoint x="1870" y="170" />
              <mxPoint x="1870" y="-307" />
            </Array>
          </mxGeometry>
        </mxCell>
        <mxCell id="3cQ0suxEUUUy-fI5HbAc-38" value="" style="edgeStyle=orthogonalEdgeStyle;fontSize=12;html=1;endArrow=ERzeroToMany;startArrow=ERmandOne;rounded=0;exitX=1;exitY=0.5;exitDx=0;exitDy=0;entryX=1;entryY=0.164;entryDx=0;entryDy=0;entryPerimeter=0;" edge="1" parent="1" source="3cQ0suxEUUUy-fI5HbAc-19" target="3cQ0suxEUUUy-fI5HbAc-17">
          <mxGeometry width="100" height="100" relative="1" as="geometry">
            <mxPoint x="1750" y="-70" as="sourcePoint" />
            <mxPoint x="1620" y="-220" as="targetPoint" />
            <Array as="points">
              <mxPoint x="1590" y="-195" />
              <mxPoint x="1590" y="-70" />
              <mxPoint x="1730" y="-70" />
              <mxPoint x="1730" y="126" />
            </Array>
          </mxGeometry>
        </mxCell>
        <mxCell id="3cQ0suxEUUUy-fI5HbAc-39" value="" style="edgeStyle=orthogonalEdgeStyle;fontSize=12;html=1;endArrow=ERzeroToMany;startArrow=ERmandOne;rounded=0;exitX=0;exitY=0.25;exitDx=0;exitDy=0;entryX=1.012;entryY=0.393;entryDx=0;entryDy=0;entryPerimeter=0;" edge="1" parent="1" source="3cQ0suxEUUUy-fI5HbAc-19" target="3cQ0suxEUUUy-fI5HbAc-21">
          <mxGeometry width="100" height="100" relative="1" as="geometry">
            <mxPoint x="1620" y="-409" as="sourcePoint" />
            <mxPoint x="1490" y="-559" as="targetPoint" />
          </mxGeometry>
        </mxCell>
        <mxCell id="3cQ0suxEUUUy-fI5HbAc-40" value="" style="edgeStyle=orthogonalEdgeStyle;fontSize=12;html=1;endArrow=ERzeroToMany;startArrow=ERmandOne;rounded=0;entryX=-0.004;entryY=0.207;entryDx=0;entryDy=0;entryPerimeter=0;exitX=-0.023;exitY=0.065;exitDx=0;exitDy=0;exitPerimeter=0;" edge="1" parent="1" source="3cQ0suxEUUUy-fI5HbAc-9" target="3cQ0suxEUUUy-fI5HbAc-11">
          <mxGeometry width="100" height="100" relative="1" as="geometry">
            <mxPoint x="420" y="-250" as="sourcePoint" />
            <mxPoint x="290" y="-400" as="targetPoint" />
            <Array as="points">
              <mxPoint x="485" y="120" />
              <mxPoint x="420" y="120" />
              <mxPoint x="420" y="-224" />
            </Array>
          </mxGeometry>
        </mxCell>
        <mxCell id="3cQ0suxEUUUy-fI5HbAc-41" value="" style="edgeStyle=orthogonalEdgeStyle;fontSize=12;html=1;endArrow=ERzeroToMany;startArrow=ERmandOne;rounded=0;entryX=0.995;entryY=0.058;entryDx=0;entryDy=0;entryPerimeter=0;exitX=0;exitY=0.5;exitDx=0;exitDy=0;" edge="1" parent="1" source="3cQ0suxEUUUy-fI5HbAc-27" target="3cQ0suxEUUUy-fI5HbAc-25">
          <mxGeometry width="100" height="100" relative="1" as="geometry">
            <mxPoint x="2390" y="315" as="sourcePoint" />
            <mxPoint x="2260" y="165" as="targetPoint" />
            <Array as="points">
              <mxPoint x="1730" y="665" />
              <mxPoint x="1730" y="500" />
              <mxPoint x="2170" y="500" />
              <mxPoint x="2170" y="150" />
            </Array>
          </mxGeometry>
        </mxCell>
        <mxCell id="3cQ0suxEUUUy-fI5HbAc-42" value="" style="edgeStyle=orthogonalEdgeStyle;fontSize=12;html=1;endArrow=ERzeroToMany;startArrow=ERmandOne;rounded=0;exitX=1;exitY=0.75;exitDx=0;exitDy=0;entryX=0.006;entryY=0.1;entryDx=0;entryDy=0;entryPerimeter=0;" edge="1" parent="1" source="3cQ0suxEUUUy-fI5HbAc-27" target="3cQ0suxEUUUy-fI5HbAc-29">
          <mxGeometry width="100" height="100" relative="1" as="geometry">
            <mxPoint x="2410" y="400" as="sourcePoint" />
            <mxPoint x="2280" y="250" as="targetPoint" />
          </mxGeometry>
        </mxCell>
        <mxCell id="3cQ0suxEUUUy-fI5HbAc-43" value="" style="edgeStyle=orthogonalEdgeStyle;fontSize=12;html=1;endArrow=ERzeroToMany;startArrow=ERmandOne;rounded=0;exitX=0.994;exitY=0.114;exitDx=0;exitDy=0;exitPerimeter=0;entryX=0;entryY=0.5;entryDx=0;entryDy=0;" edge="1" parent="1" source="3cQ0suxEUUUy-fI5HbAc-29" target="3cQ0suxEUUUy-fI5HbAc-31">
          <mxGeometry width="100" height="100" relative="1" as="geometry">
            <mxPoint x="2380" y="440" as="sourcePoint" />
            <mxPoint x="2250" y="290" as="targetPoint" />
          </mxGeometry>
        </mxCell>
      </root>
    </mxGraphModel>
  </diagram>
</mxfile>
